<mxfile host="app.diagrams.net" modified="2021-10-13T10:28:39.318Z" agent="5.0 (Macintosh)" etag="VtRFxQ1hV3bo1TXbl4dZ" version="15.5.2" type="github">
  <diagram id="AshrhRILdFQpOGaAcwBc" name="Domänenmodell">
    <mxGraphModel dx="2206" dy="795" grid="1" gridSize="10" guides="1" tooltips="1" connect="1" arrows="1" fold="1" page="1" pageScale="1" pageWidth="827" pageHeight="1169" math="0" shadow="0">
      <root>
        <mxCell id="0" />
        <mxCell id="1" parent="0" />
        <mxCell id="KFBtc_9nncnUmwofdXCp-3" value="&lt;p style=&quot;margin: 0px ; margin-top: 4px ; text-align: center&quot;&gt;&lt;b&gt;Kunstwerke&lt;/b&gt;&lt;br&gt;&lt;/p&gt;&lt;hr size=&quot;1&quot;&gt;&lt;div style=&quot;height: 2px&quot;&gt;&lt;/div&gt;" style="verticalAlign=top;align=left;overflow=fill;fontSize=12;fontFamily=Helvetica;html=1;" vertex="1" parent="1">
          <mxGeometry x="80" y="120" width="140" height="60" as="geometry" />
        </mxCell>
        <mxCell id="KFBtc_9nncnUmwofdXCp-4" value="&lt;p style=&quot;margin: 0px ; margin-top: 4px ; text-align: center&quot;&gt;&lt;b&gt;&lt;span&gt;Interessenten&lt;/span&gt;&lt;/b&gt;&lt;br&gt;&lt;/p&gt;&lt;hr size=&quot;1&quot;&gt;&lt;div style=&quot;height: 2px&quot;&gt;&lt;/div&gt;" style="verticalAlign=top;align=left;overflow=fill;fontSize=12;fontFamily=Helvetica;html=1;" vertex="1" parent="1">
          <mxGeometry x="80" y="200" width="140" height="60" as="geometry" />
        </mxCell>
        <mxCell id="KFBtc_9nncnUmwofdXCp-5" value="&lt;p style=&quot;margin: 0px ; margin-top: 4px ; text-align: center&quot;&gt;&lt;b&gt;&lt;span&gt;Kunden&lt;/span&gt;&lt;/b&gt;&lt;/p&gt;&lt;p style=&quot;margin: 0px ; margin-top: 4px ; text-align: center&quot;&gt;&lt;b&gt;&lt;span&gt;(Abonnenten)&lt;/span&gt;&lt;/b&gt;&lt;br&gt;&lt;/p&gt;&lt;hr size=&quot;1&quot;&gt;&lt;div style=&quot;height: 2px&quot;&gt;&lt;/div&gt;" style="verticalAlign=top;align=left;overflow=fill;fontSize=12;fontFamily=Helvetica;html=1;" vertex="1" parent="1">
          <mxGeometry x="240" y="100" width="140" height="80" as="geometry" />
        </mxCell>
        <mxCell id="KFBtc_9nncnUmwofdXCp-6" value="&lt;h1&gt;Entitäten&lt;/h1&gt;&lt;div&gt;Kunstwerke&lt;/div&gt;&lt;div&gt;Interessenten&lt;/div&gt;&lt;div&gt;Kunden&lt;/div&gt;&lt;div&gt;Mitgliedschaft&lt;/div&gt;&lt;div&gt;Zuhause&lt;/div&gt;&lt;div&gt;Arbeitsplatz&lt;/div&gt;&lt;div&gt;Raum&lt;/div&gt;&lt;div&gt;Ausleihe&lt;br&gt;Förderung &lt;br&gt;&lt;/div&gt;&lt;div&gt;Vermittlung&lt;br&gt;Orientierungshilfen&lt;/div&gt;&lt;div&gt;Infomiert&lt;/div&gt;&lt;div&gt;Archiv&lt;/div&gt;&lt;div&gt;Kölner Kunstszene&lt;br&gt;&lt;/div&gt;&lt;div&gt;internationale Kunstszene&lt;/div&gt;&lt;div&gt;Ansicht&lt;br&gt;Kunstzeitschriften&lt;/div&gt;&lt;div&gt;Kulturamt&lt;/div&gt;&lt;div&gt;Begegnung&lt;/div&gt;&lt;div&gt;Ausstellung&lt;/div&gt;&lt;div&gt;Qualität und Aussage einer Arbeit&lt;/div&gt;&lt;div&gt;Sammlung&lt;/div&gt;&lt;div&gt;Stilrichtung&lt;/div&gt;&lt;div&gt;Technik&lt;/div&gt;&lt;div&gt;Kunst&lt;/div&gt;&lt;div&gt;Gestaltung&lt;/div&gt;&lt;div&gt;Anmeldung&lt;/div&gt;&lt;div&gt;Suche&lt;/div&gt;&lt;div&gt;Titel&lt;/div&gt;&lt;div&gt;Ausleihstatus&lt;/div&gt;&lt;div&gt;(Ausleih-)Zeitraum&lt;br&gt;Verfügbarkeit&lt;/div&gt;&lt;div&gt;Termin&lt;/div&gt;&lt;div&gt;Reservierung&lt;br&gt;Benachrichtigung&lt;br&gt;Ausstellung&lt;br&gt;Copyright&lt;br&gt;Favoriten&lt;/div&gt;&lt;div&gt;Vorauswahl&lt;/div&gt;&lt;div&gt;&lt;span style=&quot;font-size: 11pt ; font-family: &amp;#34;arial&amp;#34; ; color: rgb(0 , 0 , 0) ; background-color: transparent ; font-weight: 400 ; font-style: normal ; font-variant: normal ; text-decoration: none ; vertical-align: baseline&quot; id=&quot;docs-internal-guid-f6005349-7fff-5bcc-70b4-9639776ee710&quot;&gt;&lt;/span&gt;&lt;/div&gt;" style="text;html=1;strokeColor=none;fillColor=none;spacing=5;spacingTop=-20;whiteSpace=wrap;overflow=hidden;rounded=0;" vertex="1" parent="1">
          <mxGeometry x="-200" y="30" width="190" height="650" as="geometry" />
        </mxCell>
      </root>
    </mxGraphModel>
  </diagram>
</mxfile>
